<svg width="64" height="64" viewBox="0 0 64 64" fill="none" xmlns="http://www.w3.org/2000/svg">
<rect width="64" height="64" fill="white"/>
<path d="M22.632 30.816L23.592 29.472H36.776L37.224 30.816H22.632ZM53.736 51.232C53.9067 51.232 53.992 51.36 53.992 51.616C53.992 51.872 53.9067 52 53.736 52C52.4987 52 51.24 51.9573 49.96 51.872C48.68 51.7867 47.4427 51.744 46.248 51.744C44.9253 51.744 43.7733 51.7867 42.792 51.872C41.8107 51.9573 40.7227 52 39.528 52C39.3573 52 39.272 51.872 39.272 51.616C39.272 51.36 39.3573 51.232 39.528 51.232C41.7893 51.232 43.1973 50.912 43.752 50.272C44.3067 49.5893 44.1573 48.3307 43.304 46.496L29.096 16.48L30.696 14.496L18.28 43.872C17.2133 46.4747 17.1493 48.352 18.088 49.504C19.0267 50.656 20.8827 51.232 23.656 51.232C23.8693 51.232 23.976 51.36 23.976 51.616C23.976 51.872 23.8693 52 23.656 52C22.376 52 21.2027 51.9573 20.136 51.872C19.0693 51.7867 17.7253 51.744 16.104 51.744C14.568 51.744 13.3307 51.7867 12.392 51.872C11.496 51.9573 10.3867 52 9.064 52C8.89333 52 8.808 51.872 8.808 51.616C8.808 51.36 8.89333 51.232 9.064 51.232C10.216 51.232 11.2187 51.0187 12.072 50.592C12.9253 50.1227 13.7147 49.3333 14.44 48.224C15.208 47.072 16.04 45.4293 16.936 43.296L30.44 11.424C30.5253 11.296 30.6747 11.232 30.888 11.232C31.1013 11.232 31.2293 11.296 31.272 11.424L46.376 43.232C47.3573 45.3227 48.232 46.9653 49 48.16C49.768 49.312 50.5147 50.1227 51.24 50.592C52.008 51.0187 52.84 51.232 53.736 51.232Z" fill="black"/>
</svg>
